<svg width="60" height="84" viewBox="0 0 60 84" fill="none" xmlns="http://www.w3.org/2000/svg">
<rect width="59.1982" height="62.0627" rx="16" fill="#EF5DA8"/>
<path d="M18.5429 71.6155V80.4655H17.2409V76.0675L17.8289 76.5955H12.9449L13.5329 76.0735V80.4655H12.2309V71.6155H13.5329V76.0555L12.9449 75.5095H17.8289L17.2409 76.0555V71.6155H18.5429ZM22.4145 80.5915C21.9345 80.5915 21.5125 80.5155 21.1485 80.3635C20.7885 80.2115 20.5085 79.9935 20.3085 79.7095C20.1085 79.4255 20.0085 79.0835 20.0085 78.6835C20.0085 78.2555 20.1205 77.9015 20.3445 77.6215C20.5725 77.3415 20.8845 77.1255 21.2805 76.9735C21.6805 76.8175 22.1345 76.7155 22.6425 76.6675C23.3985 76.5915 23.9305 76.5175 24.2385 76.4455C24.5505 76.3735 24.7065 76.2555 24.7065 76.0915C24.7065 76.0875 24.7065 76.0835 24.7065 76.0795C24.7065 75.7555 24.5685 75.5095 24.2925 75.3415C24.0165 75.1735 23.6225 75.0895 23.1105 75.0895C22.5705 75.0895 22.1525 75.1855 21.8565 75.3775C21.5645 75.5655 21.4185 75.8655 21.4185 76.2775H20.1405C20.1405 75.7895 20.2665 75.3755 20.5185 75.0355C20.7745 74.6955 21.1265 74.4375 21.5745 74.2615C22.0225 74.0815 22.5365 73.9915 23.1165 73.9915C23.6485 73.9915 24.1325 74.0735 24.5685 74.2375C25.0085 74.3975 25.3585 74.6375 25.6185 74.9575C25.8785 75.2775 26.0085 75.6755 26.0085 76.1515C26.0085 76.2355 26.0085 76.3195 26.0085 76.4035C26.0085 76.4835 26.0085 76.5655 26.0085 76.6495V79.1935C26.0085 79.3415 26.0145 79.4855 26.0265 79.6255C26.0385 79.7615 26.0605 79.8835 26.0925 79.9915C26.1285 80.1155 26.1705 80.2175 26.2185 80.2975C26.2705 80.3775 26.3125 80.4335 26.3445 80.4655H25.0485C25.0245 80.4415 24.9885 80.3915 24.9405 80.3155C24.8965 80.2355 24.8565 80.1435 24.8205 80.0395C24.7845 79.9395 24.7565 79.8255 24.7365 79.6975C24.7205 79.5655 24.7125 79.4235 24.7125 79.2715L24.9525 79.4395C24.8325 79.6715 24.6505 79.8735 24.4065 80.0455C24.1665 80.2175 23.8765 80.3515 23.5365 80.4475C23.2005 80.5435 22.8265 80.5915 22.4145 80.5915ZM22.6845 79.5115C23.0565 79.5115 23.3945 79.4535 23.6985 79.3375C24.0065 79.2175 24.2525 79.0375 24.4365 78.7975C24.6205 78.5535 24.7125 78.2475 24.7125 77.8795V76.8235L25.0185 77.2255C24.7625 77.3255 24.4485 77.4075 24.0765 77.4715C23.7085 77.5315 23.3285 77.5815 22.9365 77.6215C22.3965 77.6695 21.9905 77.7635 21.7185 77.9035C21.4465 78.0395 21.3105 78.2675 21.3105 78.5875C21.3105 78.8955 21.4225 79.1275 21.6465 79.2835C21.8745 79.4355 22.2205 79.5115 22.6845 79.5115ZM27.5893 83.0875V74.0935H28.8913V83.0875H27.5893ZM30.9433 80.5915C30.4473 80.5915 29.9873 80.4675 29.5633 80.2195C29.1393 79.9675 28.7953 79.6235 28.5313 79.1875C28.2713 78.7515 28.1413 78.2575 28.1413 77.7055C28.1413 77.6895 28.1413 77.6775 28.1413 77.6695C28.1413 77.6575 28.1413 77.6455 28.1413 77.6335L28.8973 77.6155C28.8973 77.6235 28.8973 77.6335 28.8973 77.6455C28.8973 77.6535 28.8973 77.6635 28.8973 77.6755C28.8973 78.0035 28.9813 78.2995 29.1493 78.5635C29.3213 78.8235 29.5433 79.0295 29.8153 79.1815C30.0873 79.3335 30.3793 79.4095 30.6913 79.4095C31.2033 79.4095 31.6333 79.2355 31.9813 78.8875C32.3333 78.5355 32.5093 77.9955 32.5093 77.2675C32.5093 76.5355 32.3353 75.9975 31.9873 75.6535C31.6393 75.3055 31.2073 75.1315 30.6913 75.1315C30.3793 75.1315 30.0873 75.2075 29.8153 75.3595C29.5433 75.5075 29.3213 75.7115 29.1493 75.9715C28.9813 76.2275 28.8973 76.5215 28.8973 76.8535L28.1413 76.8235C28.1413 76.2675 28.2713 75.7775 28.5313 75.3535C28.7953 74.9255 29.1393 74.5915 29.5633 74.3515C29.9873 74.1115 30.4473 73.9915 30.9433 73.9915C31.4593 73.9915 31.9373 74.1195 32.3773 74.3755C32.8173 74.6275 33.1713 74.9975 33.4393 75.4855C33.7113 75.9735 33.8473 76.5675 33.8473 77.2675C33.8473 77.9835 33.7153 78.5895 33.4513 79.0855C33.1873 79.5815 32.8353 79.9575 32.3953 80.2135C31.9553 80.4655 31.4713 80.5915 30.9433 80.5915ZM35.2885 83.0875V74.0935H36.5905V83.0875H35.2885ZM38.6425 80.5915C38.1465 80.5915 37.6865 80.4675 37.2625 80.2195C36.8385 79.9675 36.4945 79.6235 36.2305 79.1875C35.9705 78.7515 35.8405 78.2575 35.8405 77.7055C35.8405 77.6895 35.8405 77.6775 35.8405 77.6695C35.8405 77.6575 35.8405 77.6455 35.8405 77.6335L36.5965 77.6155C36.5965 77.6235 36.5965 77.6335 36.5965 77.6455C36.5965 77.6535 36.5965 77.6635 36.5965 77.6755C36.5965 78.0035 36.6805 78.2995 36.8485 78.5635C37.0205 78.8235 37.2425 79.0295 37.5145 79.1815C37.7865 79.3335 38.0785 79.4095 38.3905 79.4095C38.9025 79.4095 39.3325 79.2355 39.6805 78.8875C40.0325 78.5355 40.2085 77.9955 40.2085 77.2675C40.2085 76.5355 40.0345 75.9975 39.6865 75.6535C39.3385 75.3055 38.9065 75.1315 38.3905 75.1315C38.0785 75.1315 37.7865 75.2075 37.5145 75.3595C37.2425 75.5075 37.0205 75.7115 36.8485 75.9715C36.6805 76.2275 36.5965 76.5215 36.5965 76.8535L35.8405 76.8235C35.8405 76.2675 35.9705 75.7775 36.2305 75.3535C36.4945 74.9255 36.8385 74.5915 37.2625 74.3515C37.6865 74.1115 38.1465 73.9915 38.6425 73.9915C39.1585 73.9915 39.6365 74.1195 40.0765 74.3755C40.5165 74.6275 40.8705 74.9975 41.1385 75.4855C41.4105 75.9735 41.5465 76.5675 41.5465 77.2675C41.5465 77.9835 41.4145 78.5895 41.1505 79.0855C40.8865 79.5815 40.5345 79.9575 40.0945 80.2135C39.6545 80.4655 39.1705 80.5915 38.6425 80.5915ZM42.9305 83.1775C42.7585 83.1775 42.6005 83.1675 42.4565 83.1475C42.3165 83.1315 42.2305 83.1155 42.1985 83.0995V82.0375C42.2505 82.0615 42.3365 82.0815 42.4565 82.0975C42.5805 82.1135 42.7085 82.1215 42.8405 82.1215C43.0765 82.1215 43.2785 82.0735 43.4465 81.9775C43.6185 81.8815 43.7625 81.7475 43.8785 81.5755C43.9985 81.4075 44.0945 81.2155 44.1665 80.9995L44.3285 80.5195L42.1325 74.0935H43.4885L45.1265 79.4935H44.9585L46.5545 74.0935H47.8925L45.6065 80.9335C45.4665 81.3615 45.2945 81.7435 45.0905 82.0795C44.8865 82.4195 44.6145 82.6875 44.2745 82.8835C43.9345 83.0795 43.4865 83.1775 42.9305 83.1775Z" fill="#828282"/>
<g clip-path="url(#clip0_3_20)">
<path d="M12.7617 31.0535C12.7617 21.8909 20.1893 14.4633 29.3519 14.4633C38.5145 14.4633 45.9421 21.8909 45.9421 31.0535C45.9421 40.2161 38.5145 47.6437 29.3519 47.6437C20.1893 47.6437 12.7617 40.2161 12.7617 31.0535Z" fill="white"/>
<path d="M24.4655 27.0283C24.4655 28.1667 23.9183 29.0891 23.2432 29.0891C22.5682 29.0891 22.0204 28.1667 22.0204 27.0283C22.0204 25.8899 22.5682 24.9681 23.2432 24.9681C23.9183 24.9681 24.4655 25.8905 24.4655 27.0283Z" fill="#EF5DA8"/>
<path d="M36.6867 27.0283C36.6867 28.1667 36.1389 29.0891 35.4638 29.0891C34.7888 29.0891 34.2416 28.1667 34.2416 27.0283C34.2416 25.8899 34.7888 24.9681 35.4638 24.9681C36.1389 24.9681 36.6867 25.8905 36.6867 27.0283Z" fill="#EF5DA8"/>
<path d="M18.2041 32.622C18.8363 38.2211 23.5848 42.5725 29.3521 42.5725C35.1195 42.5725 39.8679 38.2211 40.5001 32.622H18.2041Z" fill="#EF5DA8"/>
</g>
<defs>
<clipPath id="clip0_3_20">
<rect width="33.1804" height="33.1804" fill="white" transform="translate(12.7617 14.4633)"/>
</clipPath>
</defs>
</svg>
